<?xml version="1.0" encoding="UTF-8" standalone="no"?>
<!-- Created with Inkscape (http://www.inkscape.org/) -->

<svg
   width="1920"
   height="1080"
   viewBox="0 0 1920 1080"
   version="1.1"
   id="svg1"
   inkscape:version="1.3.1 (91b66b0783, 2023-11-16, custom)"
   sodipodi:docname="icon-inkscape.svg"
   xmlns:inkscape="http://www.inkscape.org/namespaces/inkscape"
   xmlns:sodipodi="http://sodipodi.sourceforge.net/DTD/sodipodi-0.dtd"
   xmlns="http://www.w3.org/2000/svg"
   xmlns:svg="http://www.w3.org/2000/svg">
  <sodipodi:namedview
     id="namedview1"
     pagecolor="#ffffff"
     bordercolor="#000000"
     borderopacity="0.25"
     inkscape:showpageshadow="2"
     inkscape:pageopacity="0.0"
     inkscape:pagecheckerboard="0"
     inkscape:deskcolor="#d1d1d1"
     inkscape:document-units="px"
     inkscape:zoom="7.7583335"
     inkscape:cx="933.51233"
     inkscape:cy="535.68205"
     inkscape:window-width="2560"
     inkscape:window-height="1404"
     inkscape:window-x="0"
     inkscape:window-y="0"
     inkscape:window-maximized="1"
     inkscape:current-layer="layer1" />
  <defs
     id="defs1" />
  <g
     inkscape:label="Layer 1"
     inkscape:groupmode="layer"
     id="layer1">
    <rect
       style="display:none;fill:#15171e;fill-opacity:1;stroke-width:130.624;stroke-linecap:square"
       id="rect1"
       width="72"
       height="72"
       x="924"
       y="504"
       inkscape:export-filename="square.png"
       inkscape:export-xdpi="1365.3334"
       inkscape:export-ydpi="1365.3334" />
    <ellipse
       style="display:inline;fill:#15171e;fill-opacity:1;stroke:#15171e;stroke-width:4.3156;stroke-linecap:round;stroke-opacity:1"
       id="path1"
       cx="960"
       cy="540"
       rx="33.842201"
       ry="33.842197"
       inkscape:export-filename="icon.png"
       inkscape:export-xdpi="1365.3334"
       inkscape:export-ydpi="1365.3334" />
    <path
       style="color:#000000;display:inline;fill:#000000;fill-opacity:1;stroke:#ffffff;stroke-width:5;stroke-linecap:round;stroke-linejoin:round;stroke-dasharray:none;stroke-opacity:1"
       d="m 963.12658,516.58022 0.045,2.49989 c 3.1956,-0.0575 6.4279,0.9869 8.9855,2.90351 2.5577,1.91659 4.468,4.72551 5.3101,7.80868 0.842,3.08318 0.6242,6.47256 -0.6042,9.42315 -1.2284,2.95059 -3.4811,5.49358 -6.2623,7.0683 -0.086,0.0486 -0.1881,0.0629 -0.275,0.10974 -0.077,-1.81964 -0.413,-3.62439 -1.0254,-5.33024 -1.11,-3.09151 -3.002,-5.83904 -5.3176,-8.09752 -1.9245,-1.8769 -4.2647,-3.52558 -7.0318,-4.21399 -1.386,-0.34483 -2.856,-0.43741 -4.3035,-0.1829 -1.4512,0.25516 -2.8572,0.8601 -4.021,1.82888 -1.5444,1.28553 -2.5305,3.10616 -2.8897,5.03258 -0.3576,1.91846 -0.097,3.88658 0.6067,5.65187 1.404,3.52059 4.4243,6.02849 7.6611,7.58922 2.7617,1.33163 5.8183,2.08534 8.9111,2.08619 1.5495,4.1e-4 3.1004,-0.19044 4.605,-0.57389 -0.01,0.0227 -0.01,0.0466 -0.01,0.0694 -0.6499,2.74571 -2.2282,5.28902 -4.3994,7.09101 -2.1712,1.80198 -4.9613,2.88424 -7.7797,3.01701 -2.8184,0.13278 -5.6984,-0.6817 -8.0294,-2.27159 -2.331,-1.58988 -4.1414,-3.97457 -5.0465,-6.64703 l -2.3687,0.80218 c 1.0835,3.19906 3.216,6.00643 6.0063,7.90959 2.7903,1.90317 6.1818,2.86316 9.5556,2.70422 3.3738,-0.15893 6.6602,-1.43386 9.2592,-3.59091 2.599,-2.15705 4.4577,-5.15259 5.2356,-8.43934 0.1343,-0.56749 0.1945,-1.14385 0.2649,-1.71914 0.536,-0.23449 1.1134,-0.36018 1.6246,-0.64957 3.2773,-1.85562 5.8907,-4.80601 7.3382,-8.28293 1.44754,-3.47692 1.69984,-7.4095 0.70764,-11.04266 -0.99234,-3.63314 -3.20814,-6.89221 -6.22204,-9.1507 -3.0139,-2.25848 -6.765,-3.47082 -10.5306,-3.40298 z m -8.4216,14.35355 c 0.5491,0.0262 1.1004,0.10991 1.6422,0.2447 2.1719,0.54036 4.171,1.90031 5.8902,3.57703 2.0767,2.02536 3.7464,4.4685 4.7097,7.15156 0.6315,1.75885 0.9181,3.63232 0.8829,5.48285 -1.5903,0.51604 -3.2347,0.86824 -4.914,0.86777 -2.6856,-6.4e-4 -5.3818,-0.65959 -7.8251,-1.83771 -2.8347,-1.36682 -5.3322,-3.52324 -6.425,-6.2636 -0.5445,-1.36518 -0.7318,-2.87354 -0.4717,-4.26822 0.2585,-1.38673 0.986,-2.69759 2.0319,-3.56821 0.792,-0.65927 1.7991,-1.10225 2.8543,-1.28778 0.5294,-0.0931 1.0755,-0.12458 1.6246,-0.0984 z"
       id="path4-5"
       inkscape:label="sqwigwle 5.0 stroke"
       inkscape:export-filename="square.png"
       inkscape:export-xdpi="1365.3334"
       inkscape:export-ydpi="1365.3334" />
  </g>
</svg>
